<svg width="20" height="18" viewBox="0 0 20 18" fill="none" xmlns="http://www.w3.org/2000/svg">
<path d="M2.08502 14.5V13.85C2.08502 13.51 2.24502 13.19 2.49502 13.04C4.18502 12.03 6.11502 11.5 8.08502 11.5C8.11502 11.5 8.13502 11.5 8.16502 11.51C8.26502 10.81 8.46502 10.14 8.75502 9.53C8.53502 9.51 8.31502 9.5 8.08502 9.5C5.66502 9.5 3.40502 10.17 1.47502 11.32C0.595022 11.84 0.085022 12.82 0.085022 13.85V16.5H9.34502C8.92502 15.9 8.59502 15.22 8.37502 14.5H2.08502Z" fill="#2028E6"/>
<path d="M8.08502 8.5C10.295 8.5 12.085 6.71 12.085 4.5C12.085 2.29 10.295 0.5 8.08502 0.5C5.87502 0.5 4.08502 2.29 4.08502 4.5C4.08502 6.71 5.87502 8.5 8.08502 8.5ZM8.08502 2.5C9.18502 2.5 10.085 3.4 10.085 4.5C10.085 5.6 9.18502 6.5 8.08502 6.5C6.98502 6.5 6.08502 5.6 6.08502 4.5C6.08502 3.4 6.98502 2.5 8.08502 2.5Z" fill="#2028E6"/>
<path d="M18.835 12.5C18.835 12.28 18.805 12.08 18.775 11.87L19.915 10.86L18.915 9.13L17.465 9.62C17.145 9.35 16.785 9.14 16.385 8.99L16.085 7.5H14.085L13.785 8.99C13.385 9.14 13.025 9.35 12.705 9.62L11.255 9.13L10.255 10.86L11.395 11.87C11.365 12.08 11.335 12.28 11.335 12.5C11.335 12.72 11.365 12.92 11.395 13.13L10.255 14.14L11.255 15.87L12.705 15.38C13.025 15.65 13.385 15.86 13.785 16.01L14.085 17.5H16.085L16.385 16.01C16.785 15.86 17.145 15.65 17.465 15.38L18.915 15.87L19.915 14.14L18.775 13.13C18.805 12.92 18.835 12.72 18.835 12.5ZM15.085 14.5C13.985 14.5 13.085 13.6 13.085 12.5C13.085 11.4 13.985 10.5 15.085 10.5C16.185 10.5 17.085 11.4 17.085 12.5C17.085 13.6 16.185 14.5 15.085 14.5Z" fill="#2028E6"/>
</svg>
