<svg width="20" height="24" viewBox="0 0 20 24" fill="none" xmlns="http://www.w3.org/2000/svg">
<path d="M9.5 23.295V19.695C4.49 19.435 0.5 15.275 0.5 10.205C0.5 4.96499 4.76 0.704987 10 0.704987C15.24 0.704987 19.5 4.96499 19.5 10.205C19.5 15.155 16.06 20.135 10.93 22.605L9.5 23.295ZM10 2.70499C5.86 2.70499 2.5 6.06499 2.5 10.205C2.5 14.345 5.86 17.705 10 17.705H11.5V20.005C15.14 17.705 17.5 13.925 17.5 10.205C17.5 6.06499 14.14 2.70499 10 2.70499ZM9 14.205H11V16.205H9V14.205ZM11 12.705H9C9 9.45499 12 9.70499 12 7.70499C12 6.60499 11.1 5.70499 10 5.70499C8.9 5.70499 8 6.60499 8 7.70499H6C6 5.49499 7.79 3.70499 10 3.70499C12.21 3.70499 14 5.49499 14 7.70499C14 10.205 11 10.455 11 12.705Z" fill="black"/>
</svg>
